<?xml version="1.0" encoding="UTF-8"?>
<svg version="1.1" xmlns="http://www.w3.org/2000/svg" width="32" height="29">
<path d="M0 0 C3.68647462 2.80099787 5.34571179 5.52044747 6.15625 10.0234375 C5.90588345 14.78040194 5.16944639 18.28291785 2.15625 22.0234375 C-2.42825743 25.11531461 -6.47407847 25.77519151 -11.84375 25.0234375 C-16.08248388 23.71921169 -18.11167282 22.10492995 -20.28125 18.3359375 C-22.16567336 14.02076637 -22.43587932 10.47771837 -20.84375 6.0234375 C-18.99632858 2.82407166 -16.7252657 0.58662809 -13.59375 -1.4140625 C-8.91289567 -2.37150998 -4.29463834 -2.27470251 0 0 Z " fill="#CBC0F7" transform="translate(22.84375,3.9765625)"/>
<path d="M0 0 C3.68647462 2.80099787 5.34571179 5.52044747 6.15625 10.0234375 C5.90588345 14.78040194 5.16944639 18.28291785 2.15625 22.0234375 C-2.42825743 25.11531461 -6.47407847 25.77519151 -11.84375 25.0234375 C-16.08248388 23.71921169 -18.11167282 22.10492995 -20.28125 18.3359375 C-22.16567336 14.02076637 -22.43587932 10.47771837 -20.84375 6.0234375 C-18.99632858 2.82407166 -16.7252657 0.58662809 -13.59375 -1.4140625 C-8.91289567 -2.37150998 -4.29463834 -2.27470251 0 0 Z M-18.28125 6.7734375 C-19.16615404 10.31305366 -18.85547365 13.52904448 -17.84375 17.0234375 C-15.94946954 19.40656453 -14.54363821 20.6734934 -11.84375 22.0234375 C-6.15244663 22.57067821 -3.28257815 21.61677457 1.15625 18.0234375 C2.77726789 14.78140171 2.71532107 11.52738295 2.15625 8.0234375 C0.26178594 4.7673274 -1.14775843 2.6746704 -4.74609375 1.29296875 C-10.63885938 0.15060919 -14.45239557 2.11222341 -18.28125 6.7734375 Z " fill="#FCFCFE" transform="translate(22.84375,3.9765625)"/>
<path d="M0 0 C2 2.0625 2 2.0625 3 4 C1.68 4 0.36 4 -1 4 C-0.649375 4.5775 -0.29875 5.155 0.0625 5.75 C1.14917407 8.35801776 0.93065133 9.39417629 0 12 C-0.99 11.34 -1.98 10.68 -3 10 C-3 12.31 -3 14.62 -3 17 C-3.99 17 -4.98 17 -6 17 C-6.66 15.02 -7.32 13.04 -8 11 C-7.67 10.67 -7.34 10.34 -7 10 C-5.99357052 8.67151309 -4.99307821 7.33849671 -4 6 C-5.32 5.67 -6.64 5.34 -8 5 C-8.12375 5.556875 -8.2475 6.11375 -8.375 6.6875 C-9.05976855 9.22114364 -9.99133763 11.57921032 -11 14 C-11.66 13.67 -12.32 13.34 -13 13 C-12.67 10.36 -12.34 7.72 -12 5 C-12.99 5.99 -13.98 6.98 -15 8 C-14.79522646 4.31407635 -14.19363947 3.17947073 -11.4375 0.625 C-6.83498566 -1.55073405 -4.8971002 -1.2844853 0 0 Z " fill="#BFB3FB" transform="translate(20,6)"/>
<path d="M0 0 C1.65 0 3.3 0 5 0 C4.2265625 1.175625 4.2265625 1.175625 3.4375 2.375 C2.963125 3.24125 2.48875 4.1075 2 5 C2.33 5.66 2.66 6.32 3 7 C2.01 7.495 2.01 7.495 1 8 C1.33 9.32 1.66 10.64 2 12 C2.99 12 3.98 12 5 12 C5 11.01 5 10.02 5 9 C4.01 8.67 3.02 8.34 2 8 C2.99 8 3.98 8 5 8 C4.67 7.01 4.34 6.02 4 5 C4.66 4.34 5.32 3.68 6 3 C6.99 5.31 7.98 7.62 9 10 C7.23470379 12.22984785 6.34766278 12.93915901 3.5 13.4375 C1 13 1 13 -0.8125 11.3125 C-2.22040183 8.57079643 -2.38076138 7.04609104 -2 4 C-1 1.6875 -1 1.6875 0 0 Z " fill="#EAE6F1" transform="translate(12,11)"/>
<path d="M0 0 C1.65 0 3.3 0 5 0 C6.11445498 2.22890995 6.16480286 3.53055106 6.1875 6 C6.20167969 6.70125 6.21585938 7.4025 6.23046875 8.125 C6 10 6 10 4 12 C3.01 11.67 2.02 11.34 1 11 C1.04125 9.88625 1.0825 8.7725 1.125 7.625 C1.41121859 3.95633975 1.41121859 3.95633975 -1 2 C-0.67 1.34 -0.34 0.68 0 0 Z " fill="#CABFFC" transform="translate(19,10)"/>
<path d="M0 0 C2.375 0.8125 2.375 0.8125 3.375 2.8125 C1.395 3.1425 -0.585 3.4725 -2.625 3.8125 C-2.74875 4.369375 -2.8725 4.92625 -3 5.5 C-3.68476855 8.03364364 -4.61633763 10.39171032 -5.625 12.8125 C-6.285 12.4825 -6.945 12.1525 -7.625 11.8125 C-7.36837755 10.37239519 -7.09409179 8.9354313 -6.8125 7.5 C-6.66167969 6.69949219 -6.51085937 5.89898437 -6.35546875 5.07421875 C-5.18089844 1.43744758 -3.92124074 -0.28008862 0 0 Z " fill="#A897F9" transform="translate(14.625,7.1875)"/>
<path d="M0 0 C2 3 2 3 4 6 C7.8168932 6.51579638 10.54207311 5.58076658 14 4 C13 7 13 7 11.375 8.1875 C8.13855391 9.29470524 5.39386815 9.25139764 2 9 C1.34 8.34 0.68 7.68 0 7 C0.33 6.01 0.66 5.02 1 4 C0.34 3.67 -0.32 3.34 -1 3 C-0.67 2.01 -0.34 1.02 0 0 Z " fill="#C0B7E6" transform="translate(9,17)"/>
<path d="M0 0 C1.65 0 3.3 0 5 0 C4.2265625 1.175625 4.2265625 1.175625 3.4375 2.375 C2.963125 3.24125 2.48875 4.1075 2 5 C2.33 5.66 2.66 6.32 3 7 C1.35 6.67 -0.3 6.34 -2 6 C-1.34 4.02 -0.68 2.04 0 0 Z " fill="#DDD7E9" transform="translate(12,11)"/>
<path d="M0 0 C0.99 0 1.98 0 3 0 C3.59732819 2.76264289 4 5.16032769 4 8 C3.01 8 2.02 8 1 8 C0.34 6.02 -0.32 4.04 -1 2 C-0.67 1.67 -0.34 1.34 0 1 C0 0.67 0 0.34 0 0 Z " fill="#B4A7F4" transform="translate(13,15)"/>
<path d="M0 0 C0 0.99 0 1.98 0 3 C-3.13498292 4.85776765 -5.37471432 5.20140476 -9 5 C-6.08596738 3.05731159 -3.14191424 1.53604696 0 0 Z " fill="#B0A2F6" transform="translate(22,21)"/>
</svg>
